<?xml version="1.0" standalone="no"?><!DOCTYPE svg PUBLIC "-//W3C//DTD SVG 1.1//EN" "http://www.w3.org/Graphics/SVG/1.1/DTD/svg11.dtd"><svg t="1744711704447" class="icon" viewBox="0 0 1024 1024" version="1.1" xmlns="http://www.w3.org/2000/svg" p-id="3464" xmlns:xlink="http://www.w3.org/1999/xlink" width="200" height="200"><path d="M512 1024c282.766222 0 512-229.233778 512-512S794.766222 0 512 0 0 229.233778 0 512s229.233778 512 512 512z m0-56.888889C260.636444 967.111111 56.888889 763.363556 56.888889 512S260.636444 56.888889 512 56.888889s455.111111 203.747556 455.111111 455.111111-203.747556 455.111111-455.111111 455.111111z" fill="#52C41A" p-id="3465"></path><path d="M414.833778 475.761778c11.150222-22.385778 50.460444-40.874667 52.906666-51.171556 12.174222-56.149333-48.014222-149.959111-88.376888-139.320889-149.248 40.533333-90.794667 201.841778-37.575112 290.360889 63.317333 105.159111 164.892444 184.775111 280.405334 215.324445 53.589333 14.222222 117.589333 2.503111 157.269333-55.438223 13.568-19.911111 22.954667-64.654222 12.515556-72.817777-22.613333-16.725333-70.968889-51.911111-123.847111-60.785778-10.808889-1.422222-41.756444 43.690667-62.634667 65.393778-28.16 29.127111-210.119111-152.803556-190.663111-191.544889z" fill="#52C41A" p-id="3466"></path></svg>