<?xml version="1.0" standalone="no"?><!DOCTYPE svg PUBLIC "-//W3C//DTD SVG 1.1//EN" "http://www.w3.org/Graphics/SVG/1.1/DTD/svg11.dtd"><svg t="1744711719525" class="icon" viewBox="0 0 1024 1024" version="1.1" xmlns="http://www.w3.org/2000/svg" p-id="4440" xmlns:xlink="http://www.w3.org/1999/xlink" width="200" height="200"><path d="M711.50592 239.2576c-21.59616 1.65888-100.64384 93.34784-102.35392 116.77184-1.37728 18.82112 37.20704 46.6432 44.83072 50.85696 16.24576 9.00608 29.312 22.38464 34.6624 32.10752 7.63904 13.86496-24.82176 91.42272-82.22208 164.79232-66.30912 65.16224-138.99776 105.4464-153.2672 99.02592-10.0352-4.54144-24.40192-16.47616-34.68288-32.0768-4.82816-7.32672-35.7632-43.80672-54.03136-40.6016-22.7328 3.93728-104.84224 92.81536-104.37632 114.8416 0.4864 22.04672 76.8512 78.32576 102.8096 87.96672 24.94464 9.26208 137.00096-3.04128 297.50784-172.83072l0.1536 0.1792c1.04448-1.19808 2.00192-2.40128 3.05152-3.59424 1.07008-1.14688 2.13504-2.26304 3.20512-3.42528l-0.16384-0.15872c150.69696-178.81088 152.05888-293.5808 140.6464-318.0032-11.86304-25.38496-74.15296-97.4336-95.7696-95.85152zM216.10496 505.69728c-2.1248 0-4.26496-0.24064-6.41024-0.80384-14.2336-3.60448-22.89664-18.24256-19.35872-32.72192a355.59424 355.59424 0 0 1 84.87424-157.65504c47.27808-50.78016 107.69408-85.84704 174.70464-101.36576 14.27968-3.3024 28.51328 5.81632 31.76448 20.34176 3.26144 14.55616-5.69344 29.06112-19.9936 32.36352-56.75008 13.13792-107.90912 42.81856-147.93728 85.86752A300.8 300.8 0 0 0 241.83296 485.1712c-2.9952 12.30336-13.81888 20.52608-25.728 20.52608z" fill="#151615" p-id="4441"></path><path d="M318.89408 526.21312c-2.1248 0-4.27008-0.24064-6.4256-0.79872-14.21824-3.59424-22.88128-18.25792-19.34848-32.74752a245.73952 245.73952 0 0 1 58.63424-108.94336c32.68608-35.12832 74.44992-59.34592 120.74496-70.04672 14.26944-3.31776 28.49792 5.82144 31.75936 20.36224 3.24096 14.58688-5.71904 29.04576-20.00896 32.34304-36.03456 8.32-68.52096 27.1616-93.97248 54.50752a191.49824 191.49824 0 0 0-45.65504 84.80256c-2.9952 12.30336-13.81888 20.52096-25.728 20.52096zM424.54016 536.40192c-2.0992 0-4.23424-0.24576-6.3744-0.78336-14.22336-3.57888-22.92224-18.21696-19.41504-32.70144a117.34528 117.34528 0 0 1 28.09856-52.20352c15.71328-16.8448 35.70176-28.4416 57.81504-33.54112 14.2336-3.31776 28.50304 5.84192 31.73888 20.38272 3.24608 14.56128-5.72416 29.04064-20.02432 32.32256a61.2096 61.2096 0 0 0-31.01696 18.03776 62.65856 62.65856 0 0 0-15.07328 27.92448c-2.97472 12.3136-13.81376 20.56192-25.74848 20.56192z" fill="#151615" p-id="4442"></path><path d="M825.51296 195.44064c-173.96736-173.99808-456.02816-174.03392-630.02624 0-173.99808 173.99808-173.93664 456.03328 0 629.99552 173.99808 173.99808 456.064 174.0288 630.02624 0 173.99808-173.96224 173.96736-455.99232 0-629.99552zM247.97184 772.98688c-135.74656-135.71584-144.3584-350.3616-25.96864-496.1792l522.12224 522.15296c-145.82784 118.37952-360.43776 109.73696-496.1536-25.97376z m541.36832-18.11456L266.05568 231.58272c145.84832-128.04608 367.78496-122.86976 506.97728 16.31744 139.17696 139.2128 144.3584 361.11872 16.3072 506.97216z" fill="#F90606" p-id="4443"></path></svg>