<?xml version="1.0" encoding="UTF-8"?>
<svg width="24px" height="24px" viewBox="0 0 24 24" version="1.1" xmlns="http://www.w3.org/2000/svg" xmlns:xlink="http://www.w3.org/1999/xlink">
    <title>Check Icon</title>
    <g id="Check" stroke="none" stroke-width="1" fill="none" fill-rule="evenodd">
        <path d="M12,2 C17.523,2 22,6.477 22,12 C22,17.523 17.523,22 12,22 C6.477,22 2,17.523 2,12 C2,6.477 6.477,2 12,2 Z" id="Circle" fill="#1AAD19"></path>
        <path d="M10.5857864,13.4142136 L16.2928932,7.70710678 C16.6834175,7.31658249 17.3165825,7.31658249 17.7071068,7.70710678 C18.0976311,8.09763107 18.0976311,8.73079605 17.7071068,9.12132034 L11.2928932,15.5355339 C10.9023689,15.9260582 10.2692039,15.9260582 9.87867966,15.5355339 L6.29289322,11.9497475 C5.90236893,11.5592232 5.90236893,10.9260582 6.29289322,10.5355339 C6.68341751,10.1450096 7.31658249,10.1450096 7.70710678,10.5355339 L10.5857864,13.4142136 Z" id="Check" fill="#FFFFFF" fill-rule="nonzero"></path>
    </g>
</svg> 