<?xml version="1.0" standalone="no"?><!DOCTYPE svg PUBLIC "-//W3C//DTD SVG 1.1//EN" "http://www.w3.org/Graphics/SVG/1.1/DTD/svg11.dtd"><svg t="1744757834865" class="icon" viewBox="0 0 1024 1024" version="1.1" xmlns="http://www.w3.org/2000/svg" p-id="2601" xmlns:xlink="http://www.w3.org/1999/xlink" width="200" height="200"><path d="M158.938384 438.848956c51.099818-10.871605 69.221548-51.437509 71.866794-73.696466l0.166799-182.937472c0-30.443359 33.545-39.000246 38.058804-39.059598l-0.00614-48.690956c-29.30442 0-86.74976 26.491351-86.74976 87.750553l0 178.164772c-0.947582 4.712325-6.601348 25.125237-33.471322 30.839379L158.938384 438.848956zM353.718579 438.848956c51.106981-10.871605 69.222571-51.437509 71.872934-73.696466l0.162706-182.937472c0-30.443359 33.541931-39.000246 38.064944-39.059598l-0.01228-48.690956c-29.299303 0-86.744643 26.491351-86.744643 87.750553l0 178.164772c-0.953721 4.712325-6.601348 25.125237-33.472346 30.839379L353.718579 438.848956zM256.325411 438.848956c51.108005-10.871605 69.220524-51.437509 71.871911-73.696466l0.166799-182.937472c0-30.443359 33.538861-39.000246 38.058804-39.059598l-0.00614-48.690956c-29.30442 0-86.747713 26.491351-86.747713 87.750553l0 178.164772c-0.952698 4.712325-6.602372 25.125237-33.472346 30.839379L256.325411 438.848956zM458.228841 264.894066l503.186264 0 0 48.691979-503.186264 0 0-48.691979ZM458.228841 167.506015l503.186264 0 0 48.690956-503.186264 0 0-48.690956ZM84.895017 459.669144l0 155.534356c0 173.96717 155.125033 236.052181 211.012901 252.776074l0 62.404282 470.728014 0 0-62.259996c56.184627-16.483416 211.018018-78.595033 211.010855-262.364453L977.646787 459.669144 84.895017 459.669144zM928.949692 605.759407c0 182.2713-183.218882 218.074737-190.972473 219.502249l-20.040429 3.579525 0 52.846602L344.602967 881.687784l-0.048095-52.510958-19.656689-3.848655c-7.81192-1.534959-191.31221-39.503712-191.31221-210.124671l0-25.677822 795.363719 0L928.949692 605.759407zM928.949692 557.055149 133.591089 557.055149 133.591089 508.358053l795.358603 0L928.949692 557.055149zM101.127723 264.894066l48.697095 0 0 48.691979-48.697095 0 0-48.691979ZM101.127723 167.506015l48.697095 0 0 48.690956-48.697095 0 0-48.690956Z" fill="#272636" p-id="2602"></path></svg>