<?xml version="1.0" encoding="UTF-8"?>
<svg width="24px" height="24px" viewBox="0 0 24 24" version="1.1" xmlns="http://www.w3.org/2000/svg" xmlns:xlink="http://www.w3.org/1999/xlink">
    <title>Lock Icon</title>
    <g id="Lock" stroke="none" stroke-width="1" fill="none" fill-rule="evenodd">
        <circle id="Circle" fill="#DDDDDD" cx="12" cy="12" r="10"></circle>
        <path d="M15,10 L15,8 C15,6.34314575 13.6568542,5 12,5 C10.3431458,5 9,6.34314575 9,8 L9,10 L8,10 C7.44771525,10 7,10.4477153 7,11 L7,17 C7,17.5522847 7.44771525,18 8,18 L16,18 C16.5522847,18 17,17.5522847 17,17 L17,11 C17,10.4477153 16.5522847,10 16,10 L15,10 Z M13,10 L11,10 L11,8 C11,7.44771525 11.4477153,7 12,7 C12.5522847,7 13,7.44771525 13,8 L13,10 Z" id="Lock" fill="#999999" fill-rule="nonzero"></path>
    </g>
</svg> 