<?xml version="1.0" encoding="UTF-8"?>
<svg width="24px" height="24px" viewBox="0 0 24 24" version="1.1" xmlns="http://www.w3.org/2000/svg" xmlns:xlink="http://www.w3.org/1999/xlink">
    <title>Recording Icon</title>
    <g stroke="none" stroke-width="1" fill="none" fill-rule="evenodd">
        <path d="M12,2 C13.6568542,2 15,3.34314575 15,5 L15,13 C15,14.6568542 13.6568542,16 12,16 C10.3431458,16 9,14.6568542 9,13 L9,5 C9,3.34314575 10.3431458,2 12,2 Z" fill="#FF4136"></path>
        <path d="M16,10 L16,13 C16,15.2091391 14.2091391,17 12,17 C9.790861,17 8,15.2091391 8,13 L8,10 L6,10 L6,13 C6,16.1576473 8.28237328,18.7276881 11.3333333,18.9776884 L11.3333333,22 L12.6666667,22 L12.6666667,18.9776884 C15.7176267,18.7276881 18,16.1576473 18,13 L18,10 L16,10 Z" fill="#FF4136"></path>
        <!-- Pulsing circles -->
        <circle cx="12" cy="9" r="7" stroke="#FF4136" stroke-width="1" opacity="0.5">
            <animate attributeName="r" from="7" to="12" dur="1.5s" begin="0s" repeatCount="indefinite" />
            <animate attributeName="opacity" from="0.5" to="0" dur="1.5s" begin="0s" repeatCount="indefinite" />
        </circle>
        <circle cx="12" cy="9" r="7" stroke="#FF4136" stroke-width="1" opacity="0.5">
            <animate attributeName="r" from="7" to="12" dur="1.5s" begin="0.5s" repeatCount="indefinite" />
            <animate attributeName="opacity" from="0.5" to="0" dur="1.5s" begin="0.5s" repeatCount="indefinite" />
        </circle>
    </g>
</svg> 