<?xml version="1.0" standalone="no"?><!DOCTYPE svg PUBLIC "-//W3C//DTD SVG 1.1//EN" "http://www.w3.org/Graphics/SVG/1.1/DTD/svg11.dtd"><svg t="1744519315310" class="icon" viewBox="0 0 1024 1024" version="1.1" xmlns="http://www.w3.org/2000/svg" p-id="3769" xmlns:xlink="http://www.w3.org/1999/xlink" width="200" height="200"><path d="M896.213333 253.44a511.36 511.36 0 0 1-290.389333 164.821333 106.666667 106.666667 0 0 0-187.221333 0A511.36 511.36 0 0 1 128.213333 253.44V128.128a42.666667 42.666667 0 0 1 42.666667-42.666667h682.666667a42.666667 42.666667 0 0 1 42.666666 42.666667V253.44z m0 118.912v523.776a42.666667 42.666667 0 0 1-42.666666 42.666667h-682.666667a42.666667 42.666667 0 0 1-42.666667-42.666667V372.352a594.986667 594.986667 0 0 0 282.88 131.242667 106.709333 106.709333 0 0 0 202.197334 0 594.986667 594.986667 0 0 0 282.88-131.242667z" fill="#000000" p-id="3770"></path></svg>